<mxfile host="Electron" modified="2023-11-05T08:16:35.493Z" agent="Mozilla/5.0 (Windows NT 10.0; Win64; x64) AppleWebKit/537.36 (KHTML, like Gecko) draw.io/21.7.5 Chrome/114.0.5735.289 Electron/25.8.1 Safari/537.36" etag="Q382WPtuQNPs2TjnCsVJ" version="21.7.5" type="device">
  <diagram id="_5H-L2p9wcAScAushxqT" name="Trang-1">
    <mxGraphModel dx="1219" dy="713" grid="1" gridSize="10" guides="1" tooltips="1" connect="1" arrows="1" fold="1" page="1" pageScale="1" pageWidth="850" pageHeight="1100" math="0" shadow="0">
      <root>
        <mxCell id="0" />
        <mxCell id="1" parent="0" />
        <mxCell id="cm31tYwsFevxZI4d6jiq-32" value="" style="rounded=0;whiteSpace=wrap;html=1;dashed=1;" parent="1" vertex="1">
          <mxGeometry x="720" y="430" width="140" height="250" as="geometry" />
        </mxCell>
        <mxCell id="cm31tYwsFevxZI4d6jiq-33" value="Guest" style="rounded=0;whiteSpace=wrap;html=1;dashed=1;strokeWidth=0;fillColor=#dae8fc;strokeColor=#6c8ebf;" parent="1" vertex="1">
          <mxGeometry x="753" y="570" width="77" height="45" as="geometry" />
        </mxCell>
        <mxCell id="cm31tYwsFevxZI4d6jiq-34" value="Client" style="rounded=0;whiteSpace=wrap;html=1;dashed=1;strokeWidth=0;" parent="1" vertex="1">
          <mxGeometry x="753" y="630" width="77" height="35" as="geometry" />
        </mxCell>
        <mxCell id="cm31tYwsFevxZI4d6jiq-35" value="Flat page" style="rounded=0;whiteSpace=wrap;html=1;strokeWidth=1;perimeterSpacing=1;" parent="1" vertex="1">
          <mxGeometry x="753" y="510" width="80" height="40" as="geometry" />
        </mxCell>
        <mxCell id="3IGHKN7pYZjDWUHw14rV-1" value="Start page" style="rounded=0;whiteSpace=wrap;html=1;strokeWidth=1;perimeterSpacing=1;fillColor=#FFFFB3;" parent="1" vertex="1">
          <mxGeometry x="753" y="450" width="80" height="40" as="geometry" />
        </mxCell>
        <mxCell id="ui6q3bQQK6sZuKgitUgy-23" style="edgeStyle=orthogonalEdgeStyle;rounded=0;orthogonalLoop=1;jettySize=auto;html=1;entryX=0.5;entryY=0;entryDx=0;entryDy=0;" edge="1" parent="1" source="ui6q3bQQK6sZuKgitUgy-27" target="ui6q3bQQK6sZuKgitUgy-29">
          <mxGeometry relative="1" as="geometry" />
        </mxCell>
        <mxCell id="ui6q3bQQK6sZuKgitUgy-24" style="edgeStyle=orthogonalEdgeStyle;rounded=0;orthogonalLoop=1;jettySize=auto;html=1;entryX=0;entryY=0.5;entryDx=0;entryDy=0;" edge="1" parent="1" source="ui6q3bQQK6sZuKgitUgy-27" target="ui6q3bQQK6sZuKgitUgy-31">
          <mxGeometry relative="1" as="geometry">
            <mxPoint x="350" y="605" as="targetPoint" />
            <Array as="points">
              <mxPoint x="320" y="375" />
              <mxPoint x="320" y="575" />
            </Array>
          </mxGeometry>
        </mxCell>
        <mxCell id="ui6q3bQQK6sZuKgitUgy-25" style="edgeStyle=orthogonalEdgeStyle;rounded=0;orthogonalLoop=1;jettySize=auto;html=1;" edge="1" parent="1" source="ui6q3bQQK6sZuKgitUgy-27">
          <mxGeometry relative="1" as="geometry">
            <mxPoint x="580" y="375" as="targetPoint" />
          </mxGeometry>
        </mxCell>
        <mxCell id="ui6q3bQQK6sZuKgitUgy-26" style="edgeStyle=orthogonalEdgeStyle;rounded=0;orthogonalLoop=1;jettySize=auto;html=1;entryX=0.5;entryY=1;entryDx=0;entryDy=0;" edge="1" parent="1" source="ui6q3bQQK6sZuKgitUgy-27" target="ui6q3bQQK6sZuKgitUgy-33">
          <mxGeometry relative="1" as="geometry" />
        </mxCell>
        <mxCell id="ui6q3bQQK6sZuKgitUgy-27" value="Home Page" style="rounded=0;whiteSpace=wrap;html=1;fillColor=#FFFFB3;strokeColor=#36393d;" vertex="1" parent="1">
          <mxGeometry x="360" y="345" width="120" height="60" as="geometry" />
        </mxCell>
        <mxCell id="ui6q3bQQK6sZuKgitUgy-28" value="" style="edgeStyle=orthogonalEdgeStyle;rounded=0;orthogonalLoop=1;jettySize=auto;html=1;" edge="1" parent="1" source="ui6q3bQQK6sZuKgitUgy-29" target="ui6q3bQQK6sZuKgitUgy-31">
          <mxGeometry relative="1" as="geometry" />
        </mxCell>
        <mxCell id="ui6q3bQQK6sZuKgitUgy-29" value="Brand" style="rounded=0;whiteSpace=wrap;html=1;fillColor=#dae8fc;strokeColor=#6c8ebf;" vertex="1" parent="1">
          <mxGeometry x="360" y="445" width="120" height="60" as="geometry" />
        </mxCell>
        <mxCell id="ui6q3bQQK6sZuKgitUgy-30" style="edgeStyle=orthogonalEdgeStyle;rounded=0;orthogonalLoop=1;jettySize=auto;html=1;entryX=0;entryY=0.5;entryDx=0;entryDy=0;" edge="1" parent="1" source="ui6q3bQQK6sZuKgitUgy-31" target="ui6q3bQQK6sZuKgitUgy-34">
          <mxGeometry relative="1" as="geometry">
            <mxPoint x="570" y="605" as="targetPoint" />
          </mxGeometry>
        </mxCell>
        <mxCell id="ui6q3bQQK6sZuKgitUgy-31" value="Product" style="rounded=0;whiteSpace=wrap;html=1;fillColor=#dae8fc;strokeColor=#6c8ebf;" vertex="1" parent="1">
          <mxGeometry x="360" y="545" width="120" height="60" as="geometry" />
        </mxCell>
        <mxCell id="ui6q3bQQK6sZuKgitUgy-32" value="" style="rounded=0;whiteSpace=wrap;html=1;" vertex="1" parent="1">
          <mxGeometry x="580" y="345" width="120" height="150" as="geometry" />
        </mxCell>
        <mxCell id="ui6q3bQQK6sZuKgitUgy-33" value="Introduce" style="rounded=0;whiteSpace=wrap;html=1;fillColor=#dae8fc;strokeColor=#6c8ebf;" vertex="1" parent="1">
          <mxGeometry x="360" y="210" width="120" height="60" as="geometry" />
        </mxCell>
        <mxCell id="ui6q3bQQK6sZuKgitUgy-34" value="Product Detail" style="rounded=0;whiteSpace=wrap;html=1;fillColor=#dae8fc;strokeColor=#6c8ebf;" vertex="1" parent="1">
          <mxGeometry x="580" y="545" width="120" height="60" as="geometry" />
        </mxCell>
        <mxCell id="ui6q3bQQK6sZuKgitUgy-35" value="" style="endArrow=none;html=1;rounded=0;" edge="1" parent="1">
          <mxGeometry width="50" height="50" relative="1" as="geometry">
            <mxPoint x="320" y="645" as="sourcePoint" />
            <mxPoint x="320" y="575" as="targetPoint" />
          </mxGeometry>
        </mxCell>
        <mxCell id="ui6q3bQQK6sZuKgitUgy-36" value="" style="endArrow=classic;html=1;rounded=0;entryX=0.5;entryY=1;entryDx=0;entryDy=0;" edge="1" parent="1" target="ui6q3bQQK6sZuKgitUgy-34">
          <mxGeometry width="50" height="50" relative="1" as="geometry">
            <mxPoint x="320" y="645" as="sourcePoint" />
            <mxPoint x="760" y="675" as="targetPoint" />
            <Array as="points">
              <mxPoint x="640" y="645" />
            </Array>
          </mxGeometry>
        </mxCell>
        <mxCell id="ui6q3bQQK6sZuKgitUgy-37" value="Login" style="rounded=0;whiteSpace=wrap;html=1;" vertex="1" parent="1">
          <mxGeometry x="590" y="395" width="100" height="40" as="geometry" />
        </mxCell>
        <mxCell id="ui6q3bQQK6sZuKgitUgy-38" value="Register" style="rounded=0;whiteSpace=wrap;html=1;fillColor=#dae8fc;strokeColor=#6c8ebf;" vertex="1" parent="1">
          <mxGeometry x="590" y="445" width="100" height="40" as="geometry" />
        </mxCell>
        <mxCell id="ui6q3bQQK6sZuKgitUgy-39" value="Authenticator" style="text;html=1;strokeColor=none;fillColor=none;align=center;verticalAlign=middle;whiteSpace=wrap;rounded=0;" vertex="1" parent="1">
          <mxGeometry x="610" y="360" width="60" height="30" as="geometry" />
        </mxCell>
        <mxCell id="ui6q3bQQK6sZuKgitUgy-40" value="Click &quot;giới thiệu&quot; navbar" style="text;html=1;strokeColor=none;fillColor=none;align=center;verticalAlign=middle;whiteSpace=wrap;rounded=0;" vertex="1" parent="1">
          <mxGeometry x="300" y="300" width="120" height="30" as="geometry" />
        </mxCell>
        <mxCell id="ui6q3bQQK6sZuKgitUgy-41" value="Click &quot;thương hiệu&quot; navbar" style="text;html=1;strokeColor=none;fillColor=none;align=center;verticalAlign=middle;whiteSpace=wrap;rounded=0;" vertex="1" parent="1">
          <mxGeometry x="420" y="415" width="100" height="30" as="geometry" />
        </mxCell>
        <mxCell id="ui6q3bQQK6sZuKgitUgy-42" value="click brand link" style="text;html=1;strokeColor=none;fillColor=none;align=center;verticalAlign=middle;whiteSpace=wrap;rounded=0;" vertex="1" parent="1">
          <mxGeometry x="420" y="505" width="70" height="30" as="geometry" />
        </mxCell>
        <mxCell id="ui6q3bQQK6sZuKgitUgy-43" value="Click product element" style="text;html=1;strokeColor=none;fillColor=none;align=center;verticalAlign=middle;whiteSpace=wrap;rounded=0;rotation=-90;" vertex="1" parent="1">
          <mxGeometry x="240" y="560" width="120" height="30" as="geometry" />
        </mxCell>
        <mxCell id="ui6q3bQQK6sZuKgitUgy-44" value="Click product&#39;s image" style="text;html=1;strokeColor=none;fillColor=none;align=center;verticalAlign=middle;whiteSpace=wrap;rounded=0;" vertex="1" parent="1">
          <mxGeometry x="430" y="645" width="120" height="30" as="geometry" />
        </mxCell>
        <mxCell id="ui6q3bQQK6sZuKgitUgy-45" value="Select a product" style="text;html=1;strokeColor=none;fillColor=none;align=center;verticalAlign=middle;whiteSpace=wrap;rounded=0;" vertex="1" parent="1">
          <mxGeometry x="480" y="550" width="100" height="30" as="geometry" />
        </mxCell>
        <mxCell id="ui6q3bQQK6sZuKgitUgy-46" value="Click &quot;user&quot; icon" style="text;html=1;strokeColor=none;fillColor=none;align=center;verticalAlign=middle;whiteSpace=wrap;rounded=0;" vertex="1" parent="1">
          <mxGeometry x="480" y="345" width="90" height="30" as="geometry" />
        </mxCell>
      </root>
    </mxGraphModel>
  </diagram>
</mxfile>
